<svg width="12" height="12" viewBox="0 0 12 12" fill="none" xmlns="http://www.w3.org/2000/svg">
<path fill-rule="evenodd" clip-rule="evenodd" d="M0.666687 0.666667C0.666687 0.489856 0.736925 0.320286 0.861949 0.195262C0.986974 0.0702379 1.15654 2.82732e-10 1.33335 2.82732e-10H2.33335C2.48655 -4.45962e-06 2.63508 0.0527551 2.75395 0.149403C2.87281 0.246051 2.95477 0.380689 2.98602 0.530667L3.29269 2H10.6667C10.7658 2 10.8636 2.02208 10.9531 2.06465C11.0426 2.10722 11.1214 2.1692 11.184 2.24608C11.2465 2.32296 11.2911 2.41281 11.3145 2.50909C11.3379 2.60537 11.3396 2.70566 11.3194 2.80267L10.486 6.80267C10.4548 6.95265 10.3728 7.08728 10.2539 7.18393C10.1351 7.28058 9.98655 7.33334 9.83335 7.33333H4.40335L4.54202 8H9.33335C9.75786 8.00022 10.1713 8.13551 10.5138 8.38629C10.8563 8.63707 11.1102 8.99032 11.2386 9.39494C11.367 9.79955 11.3634 10.2345 11.2282 10.6369C11.093 11.0393 10.8333 11.3883 10.4866 11.6333C10.1399 11.8783 9.72427 12.0066 9.29982 11.9997C8.87537 11.9928 8.46412 11.8511 8.12559 11.5949C7.78705 11.3388 7.5388 10.9816 7.41675 10.575C7.2947 10.1684 7.30518 9.73356 7.44669 9.33333H5.88669C6.01646 9.70114 6.03587 10.0989 5.94251 10.4775C5.84915 10.8562 5.6471 11.1994 5.36123 11.4647C5.07537 11.73 4.71816 11.906 4.33357 11.9709C3.94899 12.0358 3.55381 11.9869 3.19669 11.8301C2.83956 11.6733 2.53607 11.4155 2.32357 11.0885C2.11107 10.7614 1.99883 10.3794 2.00067 9.98936C2.00251 9.59934 2.11835 9.21837 2.33393 8.89334C2.54952 8.56831 2.85543 8.3134 3.21402 8.16L1.79069 1.33333H1.33335C1.15654 1.33333 0.986974 1.2631 0.861949 1.13807C0.736925 1.01305 0.666687 0.843478 0.666687 0.666667Z" fill="#DEE2EB"/>
</svg>
